PathFileType	4	(X/Y/Z)	C:\Users\Willi\Documents\Github\OpenSimMatlabBasic\ExampleData\Trials\dynamic06\marker_experimental.trc
DataRate	CameraRate	NumFrames	NumMarkers	Units	OrigDataRate	OrigDataStartFrame	OrigNumFrames
150.000000	150.000000	2	179	mm	150.000000	123	330
Frame#	Time	LFHD			LBHD			RFHD			RBHD			C7			T10			CLAV			STRN			RBAK			LSHO			LUPA			LELB			LFRA			LWRB			LWRA			LFIN			RSHO			RUPA			RELB			RFRA			RWRB			RFIN			SACR			LASI			RASI			LT1			LT2			LT3			LS1			LS2			LS3			LHEE			LTOE			RT1			RT2			RT3			RS1			RS2			RS3			RHEE			RTOE			SACO			SACA			SACL			SACP			RWRA			LM5D			RM5D			LKNE			RKNE			LANK			RANK			LKJC			RKJC			LAJC			RAJC			LTHI			RTHI			LTIB			RTIB			P_ForcePlate1			P_ForcePlate2			P_ForcePlate3			funktRKJC			funktLKJC			funktRHIP			funktLHIP			LHJC			RHJC			LKNEshank			RKNEshank			LKJCshank			RKJCshank			LHF			COP_FP1			VECTIP_FP1			RawCentreFP1			COP_FP2			VECTIP_FP2			RawCentreFP2			COP_FP3			VECTIP_FP3			RawCentreFP3			LPelvisAngles			RPelvisAngles			LFootProgressAngles			RFootProgressAngles			LHipAngles			RHipAngles			LKneeAngles			RKneeAngles			LAnkleAngles			RAnkleAngles			LFFootAngles			RFFootAngles			LAbsAnkleAngle			RAbsAnkleAngle			RNeckAngles			LNeckAngles			RSpineAngles			LSpineAngles			LShoulderAngles			LElbowAngles			LWristAngles			RShoulderAngles			RElbowAngles			RWristAngles			RThoraxAngles			LThoraxAngles			RHeadAngles			LHeadAngles			LHipPower			LKneePower			LAnklePower			RHipPower			RKneePower			RAnklePower			LWaistPower			RWaistPower			LNeckPower			RNeckPower			LShoulderPower			RShoulderPower			LElbowPower			RElbowPower			LWristPower			RWristPower			F_ForcePlate1			F_ForcePlate2			F_ForcePlate3			LHipForce			RHipForce			LKneeForce			RKneeForce			LAnkleForce			RAnkleForce			LNormalisedGRF			RNormalisedGRF			LGroundReactionForce			RGroundReactionForce			LGRF			RGRF			LWaistForce			RWaistForce			LNeckForce			RNeckForce			LShoulderForce			RShoulderForce			LElbowForce			RElbowForce			LWristForce			RWristForce			Force_FP1			RawForceFP1			Force_FP2			RawForceFP2			Force_FP3			RawForceFP3			LHipMoment			RHipMoment			LKneeMoment			RKneeMoment			LAnkleMoment			RAnkleMoment			LGroundReactionMoment			RGroundReactionMoment			LWaistMoment			RWaistMoment			LNeckMoment			RNeckMoment			LShoulderMoment			RShoulderMoment			LElbowMoment			RElbowMoment			LWristMoment			RWristMoment			RawMomentFP1			RawMomentFP2			RawMomentFP3			
		X1	Y1	Z1	X2	Y2	Z2	X3	Y3	Z3	X4	Y4	Z4	X5	Y5	Z5	X6	Y6	Z6	X7	Y7	Z7	X8	Y8	Z8	X9	Y9	Z9	X10	Y10	Z10	X11	Y11	Z11	X12	Y12	Z12	X13	Y13	Z13	X14	Y14	Z14	X15	Y15	Z15	X16	Y16	Z16	X17	Y17	Z17	X18	Y18	Z18	X19	Y19	Z19	X20	Y20	Z20	X21	Y21	Z21	X22	Y22	Z22	X23	Y23	Z23	X24	Y24	Z24	X25	Y25	Z25	X26	Y26	Z26	X27	Y27	Z27	X28	Y28	Z28	X29	Y29	Z29	X30	Y30	Z30	X31	Y31	Z31	X32	Y32	Z32	X33	Y33	Z33	X34	Y34	Z34	X35	Y35	Z35	X36	Y36	Z36	X37	Y37	Z37	X38	Y38	Z38	X39	Y39	Z39	X40	Y40	Z40	X41	Y41	Z41	X42	Y42	Z42	X43	Y43	Z43	X44	Y44	Z44	X45	Y45	Z45	X46	Y46	Z46	X47	Y47	Z47	X48	Y48	Z48	X49	Y49	Z49	X50	Y50	Z50	X51	Y51	Z51	X52	Y52	Z52	X53	Y53	Z53	X54	Y54	Z54	X55	Y55	Z55	X56	Y56	Z56	X57	Y57	Z57	X58	Y58	Z58	X59	Y59	Z59	X60	Y60	Z60	X61	Y61	Z61	X62	Y62	Z62	X63	Y63	Z63	X64	Y64	Z64	X65	Y65	Z65	X66	Y66	Z66	X67	Y67	Z67	X68	Y68	Z68	X69	Y69	Z69	X70	Y70	Z70	X71	Y71	Z71	X72	Y72	Z72	X73	Y73	Z73	X74	Y74	Z74	X75	Y75	Z75	X76	Y76	Z76	X77	Y77	Z77	X78	Y78	Z78	X79	Y79	Z79	X80	Y80	Z80	X81	Y81	Z81	X82	Y82	Z82	X83	Y83	Z83	X84	Y84	Z84	X85	Y85	Z85	X86	Y86	Z86	X87	Y87	Z87	X88	Y88	Z88	X89	Y89	Z89	X90	Y90	Z90	X91	Y91	Z91	X92	Y92	Z92	X93	Y93	Z93	X94	Y94	Z94	X95	Y95	Z95	X96	Y96	Z96	X97	Y97	Z97	X98	Y98	Z98	X99	Y99	Z99	X100	Y100	Z100	X101	Y101	Z101	X102	Y102	Z102	X103	Y103	Z103	X104	Y104	Z104	X105	Y105	Z105	X106	Y106	Z106	X107	Y107	Z107	X108	Y108	Z108	X109	Y109	Z109	X110	Y110	Z110	X111	Y111	Z111	X112	Y112	Z112	X113	Y113	Z113	X114	Y114	Z114	X115	Y115	Z115	X116	Y116	Z116	X117	Y117	Z117	X118	Y118	Z118	X119	Y119	Z119	X120	Y120	Z120	X121	Y121	Z121	X122	Y122	Z122	X123	Y123	Z123	X124	Y124	Z124	X125	Y125	Z125	X126	Y126	Z126	X127	Y127	Z127	X128	Y128	Z128	X129	Y129	Z129	X130	Y130	Z130	X131	Y131	Z131	X132	Y132	Z132	X133	Y133	Z133	X134	Y134	Z134	X135	Y135	Z135	X136	Y136	Z136	X137	Y137	Z137	X138	Y138	Z138	X139	Y139	Z139	X140	Y140	Z140	X141	Y141	Z141	X142	Y142	Z142	X143	Y143	Z143	X144	Y144	Z144	X145	Y145	Z145	X146	Y146	Z146	X147	Y147	Z147	X148	Y148	Z148	X149	Y149	Z149	X150	Y150	Z150	X151	Y151	Z151	X152	Y152	Z152	X153	Y153	Z153	X154	Y154	Z154	X155	Y155	Z155	X156	Y156	Z156	X157	Y157	Z157	X158	Y158	Z158	X159	Y159	Z159	X160	Y160	Z160	X161	Y161	Z161	X162	Y162	Z162	X163	Y163	Z163	X164	Y164	Z164	X165	Y165	Z165	X166	Y166	Z166	X167	Y167	Z167	X168	Y168	Z168	X169	Y169	Z169	X170	Y170	Z170	X171	Y171	Z171	X172	Y172	Z172	X173	Y173	Z173	X174	Y174	Z174	X175	Y175	Z175	X176	Y176	Z176	X177	Y177	Z177	X178	Y178	Z178	X179	Y179	Z179	

124	0.8200000000000001	-224.1282196044922	1273.939331054688	290.5176086425781	-350.7725830078126	1273.33056640625	259.2044372558593	-226.0955200195313	1269.882690429688	404.4252624511718	-362.9808349609376	1278.11376953125	425.8848266601561	-409.3759765625001	1135.482177734375	342.4224853515624	-449.2175292968751	990.0504150390625	349.4490966796874	-295.2920227050782	1084.963134765625	337.4521484374999	-271.3833923339844	1028.793701171875	339.1283874511718	-435.0378723144532	1065.285034179688	438.182891845703	-357.8804931640625	1095.545532226562	200.3650360107421	-432.6834716796875	907.8221435546875	174.9237213134764	-445.3087768554688	845.479736328125	170.8483428955077	-461.0413513183594	773.503662109375	165.4060516357421	-470.6598510742188	649.6468505859375	174.2785491943359	-399.5517272949219	634.150146484375	170.2241973876952	-429.1504821777344	579.0087890625	150.4383544921874	-354.7335205078126	1108.005493164062	479.6947326660155	-381.3498229980469	1009.049438476562	534.0281982421874	-407.6021423339844	859.3754272460938	576.8031005859375	-366.4303588867188	711.952392578125	586.20361328125	-351.0432434082032	672.2438354492188	589.7037963867188	-270.8894348144532	635.2570190429688	608.0224609375	-455.6737060546876	787.7966918945312	350.5123291015624	-314.8566284179688	747.8955688476562	251.4080200195312	-331.5012817382813	743.7197265625	477.3739929199218	-315.2756652832031	555.6724243164062	217.0673522949218	-346.5529174804688	439.0817260742188	242.9034881591796	-284.6747741699219	460.610107421875	238.7263793945312	-313.3523254394532	227.3221130371094	249.6112365722656	-398.5156860351563	141.9239501953125	277.8561096191406	-254.9294738769532	150.5201873779297	267.4403076171874	-349.1998291015626	48.53667831420901	346.1560363769531	-201.2760772705078	48.3714065551758	304.1572570800781	-345.6629028320313	533.9343872070312	508.8660583496093	-375.6675415039063	421.9604187011719	495.1441040039062	-326.4870605468751	432.6608276367188	503.4478149414062	-476.6941833496094	295.0328674316407	503.8705749511718	-595.8836059570314	310.6706237792969	473.4465637207031	-504.4579162597657	201.1063995361328	493.2436218261718	-638.7689208984375	225.6466979980469	414.0528564453124	-597.306396484375	80.268913269043	442.7380676269531	-420.2339172363282	776.416748046875	357.8075866699218	-415.3811645507813	774.8862915039062	358.136749267578	-419.8594055175782	776.5106811523438	352.7232360839843	-405.0339660644532	825.046630859375	359.8256835937499	-283.5752258300782	694.8788452148438	572.8704833984375	-218.4556579589844	25.42955398559572	272.1105651855469	-620.8126220703126	90.96121978759768	471.6399230957031	-295.7558593750001	392.9986572265625	256.2224731445312	-330.1458740234376	375.1990051269532	495.6964721679687	-314.3171691894532	51.18101501464846	299.3022460937499	-618.6210327148438	194.7219696044922	462.8759460449218	-295.3982238769532	392.5010681152344	308.4641418457031	-328.3395385742188	366.9120178222656	443.6149597167968	-298.7649841308594	64.51856231689455	332.9422607421874	-598.4775390625	182.1360015869141	431.3460388183593	-332.1474304199219	540.3876953125	217.230728149414	-354.7596740722657	536.123046875	523.7662353515625	-334.6832275390626	207.8978271484375	238.2325439453125	-506.9916381835938	307.1474914550782	512.3352050781249	256.7200012207031	0.07899999618532701	396.4200134277344	-290.7802124023438	1.980186004391337e-14	323.3889160156249	-950.1600341796875	1.404999971389795	394.6300048828124	0	0	0	0	0	0	0	0	0	0	0	0	-368.0788879394532	688.2972412109375	308.7522583007811	-376.1872253417969	685.921142578125	410.381866455078	-292.2646789550782	402.0494995117188	255.6118621826171	-322.9087829589844	366.0934753417969	494.8873596191406	-292.2814636230469	402.5637512207031	307.8545837402343	-322.1121215820313	360.6328430175781	442.4097900390624	2.029385566711426	-9.306278228759766	0.007050160784275158	256.7200012207031	0.07899999618532701	396.4200134277344	256.7200012207031	0.07899999618532701	396.4200134277344	256.7200012207031	0.07899999618532701	396.4200134277344	-290.7802124023438	1.980186004391337e-14	323.3889160156249	-313.1821289062501	397.2271728515625	327.3098144531249	-254.2699890136719	-0.2560999989509441	231.3000030517578	-950.1600341796875	1.404999971389795	394.6300048828124	-950.1600341796875	1.404999971389795	394.6300048828124	-254.2699890136719	-0.2560999989509441	231.3000030517578	-17.35734367370605	3.704262971878052	2.268496751785276	-17.35734367370605	-3.704262971878052	-2.26849675178528	-3.700077056884765	-14.86863231658936	-4.989852905273438	-81.44874572753906	-4.828244686126709	-5.850100040435801	-31.23218727111816	-4.593475341796875	-0.03291704133153316	-26.42191314697266	3.742657661437988	-6.285158634185795	-14.41212558746338	-23.78630447387695	4.258133888244629	-64.4952392578125	-28.75800514221191	4.151075363159173	1.927714824676514	8.971753120422363	0.2368599474430081	28.36938285827637	25.02178192138672	11.71624660491944	1.590277359294755e-15	3.256023482813918e-31	5.317489883745891e-15	-3.18055471858951e-15	-9.939233892638914e-16	-1.590277359294756e-15	-4.056126594543457	0	-4.967322450944099e-16	21.60807228088379	0	2.646225655452898e-15	2.767927646636962	5.043797016143799	2.504846811294556	2.767927646636963	-5.043797016143799	-2.504846811294555	12.62465476989746	-5.995048046112061	-5.311155796051024	12.62465476989746	5.995048046112061	5.311155796051027	22.13160705566406	-6.434226036071777	5.556489467620852	-33.34261322021484	8.078608853927249e-13	-3.685723115710794e-15	0.174531057476997	97.77651214599609	3.383968353271479	14.61741924285888	5.974460601806642	15.64630222320557	-50.21944427490234	-7.537914520003297e-13	-4.559830809327001e-15	-7.292367458343507	91.23234558105469	8.238215446472161	-4.518800735473633	2.900748729705811	2.46417212486267	-4.518800735473633	-2.900748729705811	-2.464172124862671	1.659167647361755	-2.140449047088623	0.06449017673730884	1.659167647361755	2.140449047088623	-0.06449017673730842	6.130184940709626e-33	0.8174889087677002	-5.005675877304134e-17	5.113298637459468e-35	0.006818823516368866	-4.175325196635916e-19	-7.56381932707266e-34	-0.1008670777082443	6.176327192737438e-18	4.652244205231276e-33	0.6203985810279846	-3.798845682257406e-17	-1.509963417200041e-33	-0.2013607025146484	1.232978699043133e-17	3.257352760596788e-34	0.04343832656741142	-2.659830379554892e-18	9.365651084454274e-34	0.1248953491449356	-7.647634477936826e-18	9.365651084454274e-34	0.1248953491449356	-7.647634477936826e-18	9.8189667950504e-34	0.1309405267238617	-8.017794846552285e-18	9.8189667950504e-34	0.1309405267238617	-8.017794846552285e-18	1.179692878418486e-35	0.001573175773955882	-9.632923380356153e-20	-4.767842141795935e-35	-0.006358141079545021	3.893238560796054e-19	7.551557169785222e-35	0.01007035560905933	-6.166314381455054e-19	-1.481359808759775e-34	-0.01975462771952152	1.209622080252981e-18	1.856847695048422e-35	0.002476193476468325	-1.516231207513245e-19	-1.29473458319176e-35	-0.001726589282043278	1.057231018848214e-19	256.7200012207031	0.07899999618532701	396.4200134277344	-313.1820983886719	397.2271728515625	327.3098144531249	-950.1600341796875	1.404999971389795	394.6300048828124	2.029385805130005	-9.306278228759766	0.007050160784275158	-0.3762361705303192	1.620249629020691	-0.004643870051950361	-0.8934487700462342	-10.34521007537842	0.5626515150070196	0.1904795467853546	0.4828034937381744	-0.003641401417553431	-10.71815490722656	1.293988347053528	0.7134420871734605	0.2311687022447586	0.04367614910006523	0.01640883646905425	6.806698799133301	111.6830139160156	1.021853566169733	0	0	0	-0.6677371859550476	10.95610332489014	0.1002438291907303	0	0	0	-0.6677371859550476	10.95610332489014	0.1002438291907303	0	0	0	-2.353449106216431	-6.051713466644287	0.09216248989105233	-2.353449106216431	-6.051713466644287	0.09216248989105233	-0.2261702567338944	-2.292896032333374	0.2864546775817873	-0.2261702567338944	-2.292896032333374	0.2864546775817873	-0.1312727332115173	0.4495790004730225	-0.1025530099868775	-0.1775498986244202	0.3895853757858276	0.1627058833837509	0.08701580017805101	0.1928645372390747	-0.06025876104831696	0.1108758822083473	0.1697121411561966	0.06446626782417297	-0.02500439994037151	0.05353672057390213	-0.02702506072819234	-0.009001539088785654	0.04633689299225807	0.04483570903539658	256.7200012207031	0.07899999618532701	396.4200134277344	0	0	0	-313.1820983886719	397.2271728515625	327.3098144531249	-22.40188789367676	397.2271728515625	3.920929193496677	-950.1600341796875	1.404999971389795	394.6300048828124	-22.40188789367676	397.2271728515625	3.920929193496677	-443.9325256347656	-57.02083587646483	214.2565917968749	159.9132995605469	14.4649076461792	-10.55469703674314	-249.2935485839844	-20.24803924560546	112.6381912231445	-32.88216400146484	-1.31371605396271	-36.84535217285157	-65.54921722412108	-22.43783187866211	-79.92104339599611	17.87473297119141	-0.3248877823352814	0.3789300620555899	-1005.933898925781	-36.0968818664551	-393.2788391113282	nan	nan	nan	85.15882110595707	107.3120574951172	-305.5674438476562	85.15882110595699	-107.3120574951172	305.5674438476562	-133.3499298095703	13.23320007324218	-133.6252593994141	-133.3499298095703	-13.23320007324218	133.625259399414	1.871322870254513	-4.774547100067137	29.19198608398438	-2.403989076614384	-2.055930376052855	31.89222526550293	14.93471336364746	0.1071628555655485	8.849488258361818	18.45287704467773	0.4738667011260988	3.069787025451662	-1.470052599906922	6.342267682648705e-16	1.566766858100891	0.3332048654556271	-6.000654380188864e-16	2.987013101577759	0	0	0	-36580.2109375	-1285.395751953126	-14502.8564453125	-36580.2109375	-1285.395751953126	-14502.8564453125	
125	0.8266666666666668	-216.3100128173828	1275.835815429688	290.6163330078124	-342.9892272949219	1275.068115234375	259.3620300292968	-218.2232666015626	1271.1953125	404.5061645507812	-355.1270141601563	1278.96484375	426.0622558593749	-401.1543884277344	1136.662109375	341.7393493652343	-440.9321289062501	991.2900390625	348.4565124511718	-287.0828247070313	1086.259399414062	337.2272949218749	-263.1558532714844	1030.061157226562	338.9893493652343	-427.1235046386719	1066.455200195312	437.1611022949218	-349.0289916992188	1096.988159179688	199.9174041748046	-423.35302734375	909.0621948242188	173.8705291748046	-435.8167419433594	846.64306640625	169.6660614013671	-450.8880310058594	774.4569702148438	163.9546508789061	-459.2658996582031	650.456787109375	172.3766479492187	-387.9904479980469	635.7872314453125	168.4499969482421	-416.7845458984375	580.5807495117188	147.9689941406249	-347.1392517089844	1109.170532226562	479.191680908203	-374.4621276855469	1010.324157714844	533.3989868164061	-401.8574218750001	860.69921875	575.694091796875	-363.0813293457032	712.6619262695312	585.2539672851562	-348.3828125000001	672.724365234375	588.8414306640625	-269.0377502441407	633.9213256835938	607.12353515625	-447.6819152832032	788.9700927734375	349.493438720703	-306.8295898437501	748.7640991210938	250.6398773193359	-323.7115173339844	745.1614379882812	476.6256103515624	-309.4562072753906	555.6962890625	216.5372772216796	-342.2854309082032	439.5266723632812	242.797134399414	-280.1114501953126	460.2495727539062	238.3329010009765	-311.6026306152344	227.2598724365235	249.7005004882812	-397.7380676269532	142.9451141357422	278.8371276855468	-254.0337371826172	149.8344879150391	267.3929443359374	-349.0249328613282	48.7067565917969	346.4426574707031	-201.1093444824219	48.27998352050783	304.3726806640625	-334.4156799316407	536.0680541992188	509.0895690917968	-361.6464538574219	423.4374084472657	494.9412231445312	-312.8447875976563	435.2969360351563	503.8903503417968	-460.3347778320313	297.2644653320313	504.3934631347656	-579.8085327148439	313.0097656250001	474.7766723632812	-488.0845031738282	203.3755798339844	493.4506835937499	-623.5230712890625	227.1673583984375	415.0177001953124	-578.4730834960938	83.31865692138675	444.1696166992187	-412.3030395507813	777.6045532226562	356.8725585937499	-407.4514160156251	776.0724487304688	357.2105712890624	-411.9232177734376	777.6856079101562	351.7883911132811	-397.0802612304688	826.2316284179688	358.7850036621093	-280.3793029785157	694.212646484375	572.3694458007812	-218.3643798828125	25.47383880615236	272.1601257324219	-602.0772094726564	93.4355163574219	473.1343994140624	-292.0860290527344	392.8613891601562	256.0337524414062	-315.0738830566407	377.7407226562501	496.0709533691406	-314.5439147949219	51.31621932983401	300.0094909667968	-602.482666015625	197.1227264404297	463.7525329589843	-291.5516052246094	392.48779296875	308.2749328613281	-312.3991699218751	369.5303649902344	444.0146484374999	-298.5986022949219	64.56313323974611	333.5009155273437	-582.5328979492188	184.7126617431641	432.0303649902343	-326.5788269042969	540.6864013671875	216.7855682373046	-344.3634338378907	538.1168823242188	523.6145629882812	-333.5108032226563	208.179672241211	238.718032836914	-490.6670227050782	309.2638854980469	513.3088989257811	256.7200012207031	0.07899999618532701	396.4200134277344	-287.8570251464844	1.969031209159968e-14	321.5671997070312	-950.1600341796875	1.404999971389795	394.6300048828124	0	0	0	0	0	0	0	0	0	0	0	0	-360.1423950195313	689.3361206054688	308.0916442871093	-368.3568115234376	687.2183837890625	409.7184143066405	-288.1941223144532	401.7155456542969	254.9555969238281	-306.6319885253907	368.4276428222657	494.8276062011718	-287.8617858886719	402.4073181152344	307.1951904296874	-306.1621093750001	363.2477416992188	442.3176269531249	1.886516451835632	-9.109469413757324	-0.05054124444723051	256.7200012207031	0.07899999618532701	396.4200134277344	256.7200012207031	0.07899999618532701	396.4200134277344	256.7200012207031	0.07899999618532701	396.4200134277344	-287.8570251464844	1.969031209159968e-14	321.5671997070312	-306.5904235839844	389.6990356445312	322.0011596679687	-254.2699890136719	-0.2560999989509441	231.3000030517578	-950.1600341796875	1.404999971389795	394.6300048828124	-950.1600341796875	1.404999971389795	394.6300048828124	-254.2699890136719	-0.2560999989509441	231.3000030517578	-17.38268089294434	3.803560256958008	2.149403333663938	-17.38268089294434	-3.803560256958008	-2.149403333663942	-3.773558616638183	-15.04558372497559	-4.951886653900146	-79.81169128417969	-5.253190994262695	-5.702171325683604	-30.46450233459473	-4.84627628326416	-0.03906740993261681	-27.91343688964844	3.075125694274902	-6.207771778106693	-14.27597713470459	-23.99388694763184	4.246535778045654	-65.97178649902344	-27.78527450561523	3.387538433074945	1.324116587638855	9.249088287353516	0.1690270602703091	26.43252944946289	24.69672203063965	10.66793155670166	3.18055471858951e-15	-7.951386796473777e-16	-1.143011881771607e-15	-1.590277359294755e-15	6.957463513089003e-16	7.951386796473774e-16	-4.6573166847229	0	-5.703567970561463e-16	19.90586280822754	0	2.43776511723622e-15	2.884946584701538	4.741317749023438	2.736494779586792	2.884946584701539	-4.741317749023438	-2.736494779586791	12.70145034790039	-5.856818675994873	-5.077167987823485	12.70145034790039	5.856818675994873	5.077167987823488	21.93041610717773	-6.723857879638672	5.542430400848391	-33.60165023803711	-8.396664440135648e-13	-4.512584680831742e-15	-0.1641418188810353	98.00151824951172	3.719041347503656	15.06868457794189	6.21655559539795	15.62583160400391	-49.79773712158203	-1.224513519011358e-13	-4.508186577777914e-15	-7.025230884552003	91.06881713867188	7.757988452911371	-4.496282577514648	2.647176027297974	2.401368618011474	-4.496282577514648	-2.647176027297974	-2.401368618011475	1.513278961181641	-2.106451749801636	-0.2275939881801602	1.513278961181641	2.106451749801636	0.2275939881801606	6.196163867152909e-33	0.8262875080108643	-5.059551759304739e-17	2.496046689684586e-34	0.033285953104496	-2.038176796299497e-18	-1.221254436719073e-33	-0.1628600060939789	9.972299258605483e-18	4.196194196980987e-33	0.5595821738243103	-3.426452590169297e-17	-1.363729893475601e-33	-0.1818597763776779	1.113569965172883e-17	3.576522230386122e-34	0.04769460111856461	-2.920452029822996e-18	1.205575413031235e-33	0.160769134759903	-9.844270314270232e-18	1.205575413031235e-33	0.160769134759903	-9.844270314270232e-18	1.340523450029993e-33	0.1787650883197784	-1.094620466050553e-17	1.340523450029993e-33	0.1787650883197784	-1.094620466050553e-17	1.302554519442288e-35	0.001737017533741891	-1.063616481379918e-19	-3.563825121990437e-35	-0.004752527922391891	2.910084054007825e-19	7.077761463605652e-35	0.009438526816666126	-5.779430827348314e-19	-1.526275843677115e-34	-0.02035360410809517	1.246298806104558e-18	1.771728957394233e-35	0.002362683648243546	-1.446726483609625e-19	-1.290189874879423e-35	-0.001720528700388968	1.053519982886253e-19	256.7200012207031	0.07899999618532701	396.4200134277344	-306.5904541015626	389.6990356445312	322.0011596679687	-950.1600341796875	1.404999971389795	394.6300048828124	1.886516451835632	-9.109468460083008	-0.05054124444723051	-0.3455393016338348	1.53400981426239	0.005307080224156244	-0.9003372788429261	-10.13068580627441	0.4720236361026769	0.1776314526796341	0.4211393296718597	0.006734459195286031	-10.52396297454834	1.174189925193787	0.6212872862815843	0.2061882019042969	0.0574042908847332	0.01673004217445852	5.328824043273926	109.1893005371094	0.3655886948108613	0	0	0	-0.5227576494216919	10.71147060394287	0.03586425259709286	0	0	0	-0.5227576494216919	10.71147060394287	0.03586425259709286	0	0	0	-2.214311122894287	-5.955191135406494	0.06054751574993143	-2.214311122894287	-5.955191135406494	0.06054751574993143	-0.1262721121311188	-2.251590490341187	0.2537863552570344	-0.1262721121311188	-2.251590490341187	0.2537863552570344	-0.1289388537406921	0.4437387585639954	-0.102210246026516	-0.1711978316307068	0.3831106722354889	0.1547384709119796	0.08598763495683671	0.1904515475034714	-0.05836967378854752	0.1100138127803802	0.1663385778665543	0.06314920634031296	-0.02372894808650016	0.05286163091659546	-0.02595763094723225	-0.01044240780174733	0.04536166787147522	0.04459986463189125	256.7200012207031	0.07899999618532701	396.4200134277344	0	0	0	-306.5904541015626	389.6990356445312	322.0011596679687	-18.73341178894043	389.6990356445312	0.4339611530303694	-950.1600341796875	1.404999971389795	394.6300048828124	-18.73341178894043	389.6990356445312	0.4339611530303694	-428.6678771972656	-45.71347045898437	142.2822113037109	145.2085266113281	13.97829723358154	-10.63021945953367	-202.9574127197266	-21.17591094970703	71.06980133056638	-33.93292617797851	0.437511622905729	-36.04281234741212	-106.9646911621094	-23.00545310974122	-99.2112503051758	16.01362419128418	-0.3975904881954193	0.3207244277000447	-973.3361206054688	-25.9185256958008	-366.6161499023439	nan	nan	nan	53.69872283935551	118.30419921875	-319.115478515625	53.69872283935543	-118.30419921875	319.115478515625	-194.9733276367187	22.30375289916991	-162.295150756836	-194.9733276367188	-22.30375289916991	162.2951507568359	1.561299085617062	-4.486879825592039	28.36174011230469	-1.302913784980778	-2.593138456344603	30.99038124084473	14.34188365936279	0.1030931621789937	8.262773513793947	18.48377227783203	0.4210544526576998	3.751027107238772	-1.339156866073609	-6.931513530487953e-16	1.46680474281311	0.1216687560081478	2.140116938498278e-15	2.983697175979614	0	0	0	-35177.0390625	-999.9525756835945	-13088.837890625	-35177.0390625	-999.9525756835945	-13088.837890625	
